<?xml version="1.0" encoding="UTF-8" standalone="no"?>
<!-- Created with Inkscape (http://www.inkscape.org/) -->

<svg
   xmlns:dc="http://purl.org/dc/elements/1.1/"
   xmlns:cc="http://creativecommons.org/ns#"
   xmlns:rdf="http://www.w3.org/1999/02/22-rdf-syntax-ns#"
   xmlns:svg="http://www.w3.org/2000/svg"
   xmlns="http://www.w3.org/2000/svg"
   xmlns:sodipodi="http://sodipodi.sourceforge.net/DTD/sodipodi-0.dtd"
   xmlns:inkscape="http://www.inkscape.org/namespaces/inkscape"
   width="256"
   height="256"
   viewBox="0 0 256 256"
   id="svg6876"
   version="1.1"
   inkscape:version="0.91 r13725"
   sodipodi:docname="com.bytepixie.snippet-pixie.svg">
  <defs
     id="defs6878" />
  <sodipodi:namedview
     id="base"
     pagecolor="#ffffff"
     bordercolor="#666666"
     borderopacity="1.0"
     inkscape:pageopacity="0.0"
     inkscape:pageshadow="2"
     inkscape:zoom="2.8"
     inkscape:cx="112.23295"
     inkscape:cy="141.40705"
     inkscape:document-units="px"
     inkscape:current-layer="layer1"
     showgrid="true"
     units="px"
     inkscape:window-width="1920"
     inkscape:window-height="1017"
     inkscape:window-x="0"
     inkscape:window-y="30"
     inkscape:window-maximized="1"
     showguides="false">
    <inkscape:grid
       type="xygrid"
       id="grid8264" />
  </sodipodi:namedview>
  <metadata
     id="metadata6881">
    <rdf:RDF>
      <cc:Work
         rdf:about="">
        <dc:format>image/svg+xml</dc:format>
        <dc:type
           rdf:resource="http://purl.org/dc/dcmitype/StillImage" />
        <dc:title />
      </cc:Work>
    </rdf:RDF>
  </metadata>
  <g
     inkscape:label="Layer 1"
     inkscape:groupmode="layer"
     id="layer1"
     transform="translate(0,-796.36216)">
    <g
       transform="matrix(3.3925946,0,0,-3.3925993,224.54934,1020.8973)"
       id="g1300"
       style="fill:#7e8087;fill-opacity:1;stroke:#000000;stroke-opacity:1;stroke-width:0.29475945;stroke-miterlimit:4;stroke-dasharray:none">
      <path
         inkscape:connector-curvature="0"
         id="path1302"
         style="fill:#7e8087;fill-opacity:1;fill-rule:nonzero;stroke:#000000;stroke-opacity:1;stroke-width:0.29475945;stroke-miterlimit:4;stroke-dasharray:none"
         d="m 0,0 c -0.542,-0.539 -1.57,-0.619 -2.137,-0.619 -2.26,0 -6.206,1.301 -9.873,4.967 -5.071,5.072 -5.698,10.655 -4.348,12.005 0.539,0.538 1.568,0.618 2.133,0.618 2.264,0 6.206,-1.301 9.874,-4.967 C 0.721,6.932 1.347,1.349 0,0 m -44.908,4.348 c -3.667,-3.666 -7.611,-4.967 -9.873,-4.967 -0.567,0 -1.595,0.08 -2.134,0.617 -1.349,1.351 -0.724,6.934 4.348,12.006 3.668,3.666 7.61,4.967 9.874,4.967 0.566,0 1.595,-0.08 2.132,-0.618 1.351,-1.35 0.725,-6.934 -4.347,-12.005 M 0.519,16.873 c -4.534,4.532 -10.065,6.984 -14.744,6.984 -0.751,0 -1.477,-0.069 -2.176,-0.197 l -4.652,4.652 14.314,14.313 c 0,0 10.957,11.361 3.754,18.565 L -28.459,35.717 -53.932,61.19 c -7.204,-7.204 3.753,-18.565 3.753,-18.565 l 14.314,-14.314 -4.652,-4.651 c -0.699,0.128 -1.425,0.197 -2.176,0.197 -4.677,0 -10.21,-2.451 -14.743,-6.984 -7.207,-7.205 -9.151,-16.94 -4.348,-21.744 1.783,-1.781 4.242,-2.635 7.003,-2.635 4.677,0 10.209,2.451 14.742,6.984 5.174,5.174 7.617,11.643 6.816,16.664 l 4.764,4.763 4.765,-4.764 c -0.801,-5.02 1.642,-11.489 6.815,-16.663 4.534,-4.531 10.066,-6.984 14.742,-6.984 2.761,0 5.221,0.854 7.004,2.635 4.802,4.804 2.858,14.539 -4.348,21.744" />
    </g>
    <g
       id="g10896"
       transform="matrix(0.01920001,0,0,0.0192,125.40801,907.22881)">
      <g
         transform="matrix(1.25,0,0,-1.25,362.33199,1011.2444)"
         id="g10858">
        <path
           inkscape:connector-curvature="0"
           id="path10860"
           style="fill:#bcbec0;fill-opacity:1;fill-rule:evenodd;stroke:none"
           d="m 0,0 c 51.902,0 93.995,42.096 93.995,94.001 0,51.906 -42.093,94 -93.995,94 -51.906,0 -93.996,-42.094 -93.996,-94 C -93.996,42.096 -51.906,0 0,0 m -174.677,76.974 c 0,101.572 62.078,192.528 174.677,192.528 96.905,0 175.488,-78.592 175.488,-175.501 C 175.488,-2.908 96.905,-81.498 0,-81.498 c -34.588,0 -66.839,10.009 -94.02,27.292 l 0,-244.993 c 180.778,40.12 316.003,201.438 316.003,394.28 0,223.013 -180.847,403.867 -403.847,403.867 -90.291,0 -173.673,-29.648 -240.935,-79.741 l 0,114.102 c 71.463,39.386 153.586,61.797 240.935,61.797 276.094,0 499.998,-223.915 499.998,-500.025 0,-273.708 -220.026,-496.127 -492.811,-499.975 l 0,31.724 0,450.144 z" />
      </g>
      <path
         inkscape:connector-curvature="0"
         id="path10864"
         style="fill:#52658d;fill-opacity:1;fill-rule:evenodd;stroke:none"
         d="m -93.346375,773.54296 c 64.88,0 117.495,52.6175 117.495,117.4987 0,64.8825 -52.615,117.50004 -117.495,117.50004 -64.882495,0 -117.494995,-52.61754 -117.494995,-117.50004 0,-64.8812 52.6125,-117.4987 117.494995,-117.4987 m -276.462495,118.8512 c 0,-84.9837 21.01125,-165.0712 58.11625,-235.345 l 0,212.7075 c 0,126.9663 77.5975,240.66004 218.346245,240.66004 121.13125,0 219.362505,-98.2387 219.362505,-219.37504 0,-121.135 -98.231255,-219.3725 -219.362505,-219.3725 -43.232495,0 -83.547495,12.5125 -117.518745,34.115 l 0,-244.19496 0,-89.8475 c -168.24751,112.01626 -279.13501,303.41126 -279.13501,520.65246 0,330.42384 256.53125,601.05014 581.241255,623.52134 l 0,-120.5625 C -167.02887,1373.1643 -369.80887,1156.413 -369.80887,892.39416" />
    </g>
  </g>
</svg>
