<?xml version="1.0" encoding="UTF-8" standalone="no"?>
<!-- Created with Inkscape (http://www.inkscape.org/) -->

<svg
   xmlns:dc="http://purl.org/dc/elements/1.1/"
   xmlns:cc="http://creativecommons.org/ns#"
   xmlns:rdf="http://www.w3.org/1999/02/22-rdf-syntax-ns#"
   xmlns:svg="http://www.w3.org/2000/svg"
   xmlns="http://www.w3.org/2000/svg"
   xmlns:sodipodi="http://sodipodi.sourceforge.net/DTD/sodipodi-0.dtd"
   xmlns:inkscape="http://www.inkscape.org/namespaces/inkscape"
   width="256"
   height="256"
   viewBox="0 0 256 256"
   id="svg6876"
   version="1.1"
   inkscape:version="0.91 r13725"
   sodipodi:docname="com.bytepixie.snippet-pixie.svg">
  <defs
     id="defs6878" />
  <sodipodi:namedview
     id="base"
     pagecolor="#ffffff"
     bordercolor="#666666"
     borderopacity="1.0"
     inkscape:pageopacity="0.0"
     inkscape:pageshadow="2"
     inkscape:zoom="0.35"
     inkscape:cx="375"
     inkscape:cy="62.857143"
     inkscape:document-units="px"
     inkscape:current-layer="layer1"
     showgrid="false"
     units="px"
     inkscape:window-width="1920"
     inkscape:window-height="1017"
     inkscape:window-x="0"
     inkscape:window-y="30"
     inkscape:window-maximized="1" />
  <metadata
     id="metadata6881">
    <rdf:RDF>
      <cc:Work
         rdf:about="">
        <dc:format>image/svg+xml</dc:format>
        <dc:type
           rdf:resource="http://purl.org/dc/dcmitype/StillImage" />
        <dc:title></dc:title>
      </cc:Work>
    </rdf:RDF>
  </metadata>
  <g
     inkscape:label="Layer 1"
     inkscape:groupmode="layer"
     id="layer1"
     transform="translate(0,-796.36216)">
    <g
       id="g5925"
       transform="matrix(3.5555556,0,0,-3.5555556,209.13067,1004.8173)"
       style="fill:#485a6c;fill-opacity:1">
      <path
         d="m 0,0 -21.937,0 7.549,7.511 -7.414,7.417 6.873,6.873 7.447,-7.446 7.499,7.547 L 0,0 Z m -23.192,30.05 -6.875,-6.872 -7.446,7.444 -7.499,-7.546 0.018,21.903 21.935,0 -7.548,-7.512 7.415,-7.417 z m 23.415,28.578 -46.08,0 c -7.129,0 -12.961,-5.832 -12.961,-12.961 l 0,-46.08 c 0,-7.127 5.832,-12.959 12.961,-12.959 l 46.08,0 c 7.127,0 12.959,5.832 12.959,12.959 l 0,46.08 c 0,7.129 -5.832,12.961 -12.959,12.961"
         style="fill:#485a6c;fill-opacity:1;fill-rule:nonzero;stroke:none"
         id="path5927"
         inkscape:connector-curvature="0" />
    </g>
  </g>
</svg>
